<svg xmlns="http://www.w3.org/2000/svg" xmlns:xlink="http://www.w3.org/1999/xlink" width="1200" height="1200" viewBox="0 0 1200 1200"><g><g transform="translate(600 600) scale(0.69 0.69) rotate(0) translate(-600 -600)" style="fill:#666666;"><svg fill="#666666" xmlns="http://www.w3.org/2000/svg" xmlns:xlink="http://www.w3.org/1999/xlink" version="1.1" x="0px" y="0px" viewBox="206 206 100 100" enable-background="new 206 206 100 100" xml:space="preserve"><g><path d="M300.597,275.384v-9.805c0-0.445-0.361-0.808-0.808-0.808h-13.294c0.879-2.546,1.448-5.234,1.661-8.021h5.041   c0.363,1.444,1.668,2.519,3.224,2.519c1.835,0,3.327-1.492,3.327-3.327c0-1.834-1.492-3.327-3.327-3.327   c-1.556,0-2.861,1.075-3.224,2.52h-4.959c0.008-0.286,0.012-0.572,0.012-0.859c0-2.385-0.263-4.71-0.756-6.95h6.408   c0.446,0,0.808-0.361,0.808-0.808v-8.261c1.444-0.363,2.52-1.668,2.52-3.224c0-1.834-1.493-3.327-3.327-3.327   c-1.835,0-3.327,1.493-3.327,3.327c0,1.556,1.074,2.862,2.52,3.224v7.454h-6.001c-2.84-10.294-10.664-18.542-20.704-21.967v-10.722   h8.996c0.362,1.444,1.668,2.519,3.223,2.519c1.835,0,3.327-1.493,3.327-3.327c0-1.833-1.492-3.326-3.327-3.326   c-1.555,0-2.859,1.073-3.223,2.517h-9.806c-0.446,0-0.808,0.361-0.808,0.808v11.028c-2.56-0.725-5.248-1.14-8.021-1.203v-3.233   c1.444-0.362,2.519-1.668,2.519-3.224c0-1.834-1.492-3.327-3.326-3.327c-1.835,0-3.328,1.492-3.328,3.327   c0,1.556,1.075,2.861,2.52,3.224v3.235c-2.698,0.071-5.314,0.477-7.81,1.175v-5.114c0-0.446-0.361-0.808-0.808-0.808h-8.26   c-0.362-1.445-1.668-2.52-3.224-2.52c-1.834,0-3.327,1.493-3.327,3.327s1.493,3.327,3.327,3.327c1.556,0,2.861-1.074,3.224-2.519   h7.453v4.803c-10.055,3.395-17.904,11.62-20.775,21.902h-11.914v-8.996c1.445-0.363,2.519-1.668,2.519-3.224   c0-1.834-1.492-3.326-3.327-3.326s-3.326,1.492-3.326,3.327c0,1.555,1.074,2.861,2.519,3.223v9.804   c0,0.446,0.362,0.808,0.808,0.808h12.316c-0.508,2.27-0.778,4.628-0.778,7.048c0,0.326,0.006,0.65,0.016,0.974h-4.964   c-0.363-1.444-1.668-2.517-3.223-2.517c-1.834,0-3.327,1.492-3.327,3.326s1.492,3.328,3.327,3.328c1.555,0,2.861-1.074,3.223-2.52   h5.052c0.217,2.71,0.769,5.326,1.616,7.808H218.1c-0.446,0-0.808,0.361-0.808,0.808v8.262c-1.444,0.362-2.519,1.669-2.519,3.224   c0,1.835,1.492,3.327,3.327,3.327s3.327-1.492,3.327-3.327c0-1.556-1.075-2.861-2.52-3.224v-7.454h7.167   c3.493,8.67,10.647,15.485,19.538,18.519v14.171h-8.996c-0.362-1.444-1.668-2.52-3.223-2.52c-1.834,0-3.327,1.493-3.327,3.328   c0,1.834,1.493,3.326,3.327,3.326c1.555,0,2.86-1.073,3.223-2.518h9.804c0.446,0,0.808-0.363,0.808-0.81V285.31   c2.56,0.725,5.249,1.141,8.023,1.204v6.681c-0.58,0.144-1.112,0.438-1.545,0.872c-0.628,0.628-0.975,1.464-0.974,2.353   c0,1.834,1.493,3.326,3.327,3.326c1.834,0,3.327-1.492,3.327-3.326c0-1.556-1.074-2.861-2.519-3.224v-6.685   c2.696-0.071,5.313-0.477,7.807-1.174v8.562c0,0.161,0.049,0.31,0.13,0.436c0.004,0.005,0.006,0.011,0.009,0.016   c0.005,0.008,0.012,0.014,0.018,0.021c0.025,0.035,0.052,0.069,0.083,0.101c0.151,0.151,0.356,0.236,0.57,0.236h0.001l8.259-0.002   c0.362,1.445,1.669,2.521,3.225,2.521c1.835,0,3.327-1.493,3.327-3.327c0-1.835-1.492-3.327-3.327-3.327   c-1.555,0-2.86,1.073-3.224,2.519h-7.453v-8.252c8.903-3.006,16.075-9.799,19.596-18.453h13.094v8.996   c-1.444,0.362-2.52,1.668-2.52,3.224c0,1.835,1.492,3.327,3.327,3.327c1.834,0,3.326-1.492,3.326-3.327   C303.115,277.052,302.041,275.747,300.597,275.384z M296.421,254.23c0.943,0,1.712,0.768,1.712,1.712s-0.769,1.711-1.712,1.711   c-0.941,0-1.708-0.765-1.711-1.706c0-0.001,0-0.003,0-0.005c0-0.002,0-0.003,0-0.005   C294.712,254.995,295.479,254.23,296.421,254.23z M292.191,235.032c0-0.943,0.768-1.711,1.712-1.711   c0.943,0,1.712,0.768,1.712,1.711c0,0.944-0.769,1.712-1.712,1.712C292.958,236.744,292.191,235.976,292.191,235.032z    M235.035,219.81c-0.944,0-1.712-0.768-1.712-1.711c0-0.944,0.768-1.712,1.712-1.712c0.943,0,1.711,0.768,1.711,1.712   C236.746,219.043,235.978,219.81,235.035,219.81z M210.503,233.392c0-0.943,0.768-1.711,1.711-1.711   c0.944,0,1.711,0.767,1.711,1.71c0,0.944-0.768,1.712-1.711,1.712C211.271,235.104,210.503,234.336,210.503,233.392z    M219.812,276.967c0,0.944-0.768,1.712-1.711,1.712s-1.711-0.768-1.711-1.712c0-0.943,0.768-1.712,1.711-1.712   C219.044,275.256,219.812,276.023,219.812,276.967z M233.394,301.498c-0.943,0-1.711-0.768-1.711-1.711   c0-0.944,0.768-1.712,1.711-1.712c0.944,0,1.711,0.769,1.711,1.712S234.338,301.498,233.394,301.498z M278.609,210.502   c0.944,0,1.712,0.767,1.712,1.71c0,0.944-0.768,1.712-1.712,1.712c-0.943,0-1.711-0.768-1.711-1.712   C276.898,211.269,277.665,210.502,278.609,210.502z M254.231,215.579c0-0.943,0.768-1.711,1.712-1.711   c0.943,0,1.711,0.768,1.711,1.711s-0.768,1.711-1.711,1.711C254.999,217.291,254.231,216.523,254.231,215.579z M215.581,257.77   c-0.944,0-1.711-0.769-1.711-1.712c0-0.943,0.768-1.711,1.711-1.711c0.943,0,1.711,0.768,1.711,1.711   C217.292,257.002,216.525,257.77,215.581,257.77z M257.771,296.42c0,0.944-0.768,1.712-1.711,1.712s-1.711-0.768-1.711-1.712   c0-0.457,0.178-0.887,0.501-1.21c0.323-0.323,0.752-0.501,1.209-0.501c0,0,0.001,0,0.001,0c0,0,0,0,0.001,0   C257.004,294.709,257.771,295.476,257.771,296.42z M276.969,292.189c0.943,0,1.711,0.768,1.711,1.712   c0,0.943-0.768,1.712-1.711,1.712c-0.944,0-1.712-0.769-1.712-1.712C275.257,292.957,276.025,292.189,276.969,292.189z    M256.002,284.909c-16.892,0-30.634-13.742-30.634-30.634c0-16.891,13.742-30.634,30.634-30.634   c16.891,0,30.633,13.743,30.633,30.634C286.635,271.167,272.893,284.909,256.002,284.909z M299.788,280.318   c-0.943,0-1.712-0.768-1.712-1.711s0.769-1.711,1.712-1.711s1.711,0.768,1.711,1.711S300.732,280.318,299.788,280.318z"></path><path d="M279.366,266.809c-0.387-0.224-0.881-0.091-1.104,0.295c-3.269,5.659-8.495,9.826-14.718,11.734   c-0.003,0.001-0.005,0.002-0.008,0.003l-0.184,0.056c-0.033,0.01-0.064,0.021-0.096,0.034c-0.032,0.005-0.064,0.013-0.097,0.022   l-0.194,0.055c-0.43,0.121-0.68,0.567-0.559,0.997c0.101,0.355,0.425,0.589,0.777,0.589c0.072,0,0.146-0.011,0.219-0.031   l0.204-0.058c0.035-0.01,0.069-0.022,0.102-0.036c0.035-0.006,0.069-0.014,0.104-0.024c0.069-0.021,0.138-0.041,0.206-0.063   c0.003-0.001,0.006-0.001,0.009-0.002c6.609-2.03,12.162-6.458,15.634-12.469C279.884,267.526,279.752,267.032,279.366,266.809z"></path><path d="M279.646,240.612c-0.224-0.386-0.717-0.518-1.104-0.294c-0.386,0.224-0.518,0.718-0.294,1.104   c2.251,3.889,3.441,8.333,3.441,12.854c0,1.943-0.217,3.879-0.646,5.756c0,0,0,0.001-0.001,0.002l-0.045,0.195   c-0.008,0.032-0.014,0.065-0.018,0.099c-0.012,0.03-0.021,0.063-0.029,0.096l-0.05,0.197c-0.108,0.434,0.154,0.872,0.587,0.98   c0.066,0.017,0.132,0.024,0.197,0.024c0.361,0,0.69-0.245,0.783-0.611l0.05-0.204c0.01-0.035,0.016-0.07,0.02-0.105   c0.013-0.033,0.023-0.067,0.031-0.103l0.048-0.204c0-0.001,0-0.002,0-0.002l0.001-0.003c0,0,0-0.001,0-0.002   c0.457-1.994,0.688-4.051,0.688-6.115C283.306,249.471,282.04,244.746,279.646,240.612z"></path><path d="M256.03,279.964h-0.028c-6.512,0-12.722-2.439-17.488-6.871c0-0.001-0.001-0.002-0.002-0.002   c-0.048-0.045-0.097-0.09-0.145-0.136c-0.025-0.023-0.051-0.046-0.079-0.065c-0.021-0.026-0.043-0.051-0.068-0.074l-0.144-0.14   c-0.319-0.312-0.831-0.305-1.142,0.015c-0.312,0.318-0.306,0.83,0.014,1.142l0.154,0.149c0.026,0.024,0.054,0.047,0.082,0.068   c0.022,0.026,0.046,0.053,0.072,0.077c0.052,0.05,0.104,0.099,0.157,0.147c0,0,0,0,0,0c5.066,4.711,11.667,7.305,18.589,7.305   h0.028c0.446,0,0.807-0.361,0.807-0.808C256.837,280.326,256.476,279.964,256.03,279.964z"></path><path d="M230.313,254.275c0-1.935,0.216-3.863,0.642-5.731l0.045-0.195c0.008-0.033,0.013-0.066,0.017-0.1   c0.012-0.031,0.021-0.063,0.03-0.096l0.048-0.194c0.109-0.433-0.152-0.872-0.584-0.981c-0.432-0.109-0.872,0.152-0.981,0.584   l-0.052,0.208c-0.008,0.035-0.015,0.07-0.019,0.105c-0.012,0.033-0.022,0.067-0.031,0.102l-0.047,0.202   c0,0.002-0.001,0.003-0.001,0.005l0,0l0,0l0,0c-0.452,1.986-0.682,4.035-0.682,6.09c0,4.814,1.271,9.548,3.674,13.688   c0.15,0.259,0.421,0.403,0.699,0.403c0.138,0,0.277-0.036,0.404-0.11c0.386-0.224,0.517-0.718,0.293-1.104   C231.507,263.258,230.313,258.805,230.313,254.275z"></path><path d="M232.624,241.766c0.127,0.073,0.266,0.108,0.402,0.108c0.279,0,0.551-0.146,0.701-0.405   c3.263-5.662,8.485-9.835,14.706-11.75c0,0,0,0,0.001,0l0.191-0.058c0.033-0.01,0.064-0.021,0.094-0.035   c0.032-0.005,0.065-0.012,0.098-0.022l0.193-0.055c0.429-0.121,0.679-0.567,0.558-0.997c-0.121-0.429-0.567-0.679-0.997-0.558   l-0.205,0.059c-0.035,0.01-0.068,0.022-0.101,0.037c-0.035,0.005-0.069,0.014-0.104,0.024l-0.198,0.06   c-0.002,0-0.004,0.001-0.006,0.001h0c0,0,0,0-0.001,0c-6.612,2.036-12.162,6.471-15.629,12.487   C232.104,241.05,232.237,241.543,232.624,241.766z"></path><path d="M255.945,228.587h0.056c6.521,0,12.739,2.447,17.508,6.89c0.001,0,0.002,0.001,0.002,0.001l0.146,0.137   c0.025,0.023,0.051,0.045,0.078,0.065c0.021,0.025,0.043,0.05,0.067,0.074l0.146,0.141c0.157,0.153,0.36,0.229,0.563,0.229   c0.21,0,0.42-0.082,0.579-0.244c0.311-0.32,0.304-0.831-0.016-1.142l-0.152-0.147c-0.026-0.025-0.054-0.048-0.082-0.069   c-0.021-0.027-0.046-0.053-0.071-0.078l-0.151-0.143c-0.002-0.001-0.003-0.002-0.004-0.003l-0.001,0   c-0.001,0-0.001-0.001-0.002-0.001c-5.069-4.723-11.678-7.324-18.613-7.324h-0.052c-0.446,0-0.808,0.361-0.808,0.808   C255.137,228.225,255.499,228.587,255.945,228.587z"></path><path d="M277.092,254.275c0,4.166-1.213,8.194-3.507,11.649c-0.001,0.001-0.001,0.002-0.002,0.003   c-0.036,0.055-0.072,0.108-0.109,0.163c-0.019,0.027-0.036,0.056-0.051,0.086c-0.021,0.024-0.042,0.05-0.062,0.078l-0.113,0.163   c-0.257,0.364-0.17,0.868,0.195,1.125c0.141,0.1,0.304,0.147,0.464,0.147c0.254,0,0.504-0.119,0.661-0.343l0.122-0.174   c0.021-0.029,0.038-0.061,0.055-0.092c0.022-0.026,0.045-0.054,0.064-0.084c0.041-0.059,0.081-0.118,0.12-0.179   c0,0,0.001,0,0.001-0.001c2.471-3.721,3.776-8.059,3.776-12.543c0-2.401-0.373-4.766-1.109-7.028   c-0.138-0.424-0.594-0.656-1.018-0.518c-0.425,0.138-0.656,0.594-0.519,1.018C276.745,249.847,277.092,252.044,277.092,254.275z"></path><path d="M249.315,275.98c0.068,0.021,0.136,0.041,0.204,0.062c0.035,0.011,0.07,0.019,0.104,0.023   c0.032,0.015,0.065,0.026,0.1,0.036l0.198,0.056c0.002,0.001,0.004,0.002,0.006,0.002l0,0c0,0,0,0,0.001,0.001   c1.968,0.545,4.011,0.82,6.072,0.82c4.842,0,9.464-1.503,13.364-4.347c0.36-0.264,0.439-0.769,0.177-1.129   s-0.769-0.439-1.129-0.177c-3.622,2.642-7.914,4.037-12.412,4.037c-1.915,0-3.812-0.256-5.64-0.762c0,0,0,0,0,0l-0.19-0.054   c-0.033-0.01-0.065-0.017-0.098-0.022c-0.03-0.013-0.061-0.024-0.093-0.033l-0.188-0.058c-0.426-0.131-0.878,0.107-1.01,0.534   S248.889,275.848,249.315,275.98z"></path><path d="M248.635,232.792l-0.2,0.07c-0.034,0.012-0.067,0.026-0.098,0.042c-0.034,0.007-0.068,0.017-0.102,0.03   c-0.063,0.022-0.126,0.046-0.189,0.069c-0.004,0.001-0.008,0.003-0.011,0.004c-6.436,2.412-11.537,7.754-13.646,14.29   c-0.137,0.425,0.096,0.88,0.521,1.017c0.083,0.026,0.166,0.039,0.248,0.039c0.341,0,0.658-0.218,0.769-0.56   c1.958-6.067,6.69-11.027,12.663-13.269c0.004-0.001,0.008-0.003,0.012-0.004c0.062-0.023,0.123-0.046,0.185-0.068   c0.032-0.012,0.062-0.025,0.092-0.04c0.032-0.007,0.063-0.016,0.095-0.027l0.188-0.065c0.422-0.145,0.646-0.604,0.501-1.026   C249.516,232.871,249.056,232.647,248.635,232.792z"></path><path d="M242.679,272.664c0.144,0.104,0.31,0.154,0.474,0.154c0.25,0,0.496-0.116,0.654-0.333c0.262-0.361,0.182-0.866-0.179-1.129   c-5.245-3.806-8.414-9.689-8.697-16.143c0-0.004,0-0.008,0-0.013l-0.008-0.196c-0.001-0.034-0.004-0.067-0.009-0.099   c0.003-0.032,0.004-0.065,0.003-0.099l-0.004-0.198c-0.007-0.446-0.376-0.798-0.82-0.795c-0.446,0.007-0.802,0.375-0.795,0.82   l0.004,0.212c0.001,0.036,0.004,0.071,0.009,0.106c-0.003,0.035-0.004,0.07-0.003,0.105c0.002,0.067,0.004,0.133,0.008,0.2   c0,0.004,0,0.009,0,0.013C233.617,262.223,237.03,268.563,242.679,272.664z"></path><path d="M255.952,233.185h0.049c6.469,0,12.49,2.908,16.521,7.978c0,0.001,0,0.001,0.001,0.002l0.122,0.155   c0.021,0.026,0.043,0.051,0.065,0.074c0.017,0.028,0.035,0.056,0.056,0.083l0.119,0.158c0.158,0.211,0.401,0.322,0.646,0.322   c0.169,0,0.339-0.052,0.484-0.162c0.356-0.268,0.429-0.774,0.16-1.131c-0.042-0.057-0.085-0.113-0.128-0.17   c-0.021-0.028-0.045-0.055-0.07-0.08c-0.018-0.03-0.037-0.06-0.06-0.088l-0.126-0.16c-0.002-0.002-0.004-0.004-0.006-0.006   c-4.338-5.459-10.82-8.59-17.79-8.59h-0.044c-0.446,0-0.808,0.362-0.808,0.808C255.145,232.823,255.507,233.185,255.952,233.185z"></path><path d="M273.936,254.261c0-0.446-0.361-0.801-0.808-0.801s-0.808,0.368-0.808,0.814c0,6.242-3.638,12.021-9.269,14.722   l-0.173,0.082c-0.029,0.014-0.058,0.028-0.084,0.045c-0.029,0.01-0.06,0.021-0.089,0.034l-0.175,0.078   c-0.408,0.179-0.594,0.655-0.415,1.064c0.133,0.303,0.43,0.483,0.74,0.483c0.108,0,0.219-0.022,0.324-0.068   c0.063-0.028,0.127-0.057,0.19-0.085c0.032-0.015,0.063-0.031,0.093-0.05c0.033-0.01,0.066-0.022,0.099-0.038l0.181-0.085   c0.002-0.001,0.004-0.002,0.006-0.003l0.001-0.001c0.001,0,0.002-0.001,0.003-0.001c6.186-2.969,10.183-9.318,10.183-16.178   V254.261L273.936,254.261z"></path><path d="M255.948,237.956c0.001,0,0.003,0,0.005,0h0.048c6.247,0,12.028,3.643,14.728,9.28l0.082,0.173   c0.014,0.029,0.028,0.056,0.045,0.083c0.009,0.03,0.021,0.06,0.034,0.09c0.025,0.058,0.052,0.115,0.077,0.173   c0.132,0.304,0.429,0.485,0.74,0.485c0.107,0,0.217-0.021,0.322-0.067c0.409-0.178,0.596-0.654,0.418-1.063   c-0.028-0.064-0.057-0.128-0.085-0.192c-0.015-0.032-0.031-0.063-0.049-0.092c-0.011-0.034-0.023-0.067-0.038-0.1   c-0.03-0.063-0.06-0.125-0.089-0.188c-0.001,0-0.001-0.001-0.001-0.002c-2.967-6.194-9.319-10.196-16.184-10.196h-0.058   c-0.446,0.002-0.806,0.366-0.803,0.812C255.143,237.597,255.504,237.956,255.948,237.956z"></path><path d="M248.798,237.846c-0.064,0.028-0.128,0.057-0.192,0.085c-0.032,0.014-0.063,0.031-0.092,0.049   c-0.033,0.011-0.066,0.023-0.099,0.039c-0.063,0.03-0.125,0.059-0.187,0.089c0,0-0.001,0-0.001,0.001   c-6.172,2.973-10.16,9.319-10.16,16.167v0.04c0,0.446,0.361,0.808,0.808,0.808c0.446,0,0.808-0.361,0.808-0.808v-0.04   c0-6.231,3.629-12.006,9.246-14.711l0,0c0.058-0.028,0.115-0.055,0.173-0.082c0.029-0.013,0.057-0.028,0.083-0.045   c0.03-0.009,0.06-0.021,0.089-0.034c0.058-0.026,0.116-0.052,0.174-0.078c0.408-0.179,0.594-0.656,0.415-1.064   C249.683,237.852,249.206,237.666,248.798,237.846z"></path><path d="M241.286,261.339C241.285,261.339,241.285,261.338,241.286,261.339c-0.029-0.059-0.056-0.116-0.083-0.174   c-0.014-0.029-0.029-0.058-0.045-0.084c-0.009-0.029-0.021-0.06-0.034-0.088l-0.078-0.176c-0.18-0.409-0.656-0.594-1.064-0.414   c-0.409,0.18-0.594,0.656-0.415,1.064l0.084,0.189c0.015,0.032,0.032,0.063,0.05,0.094c0.011,0.032,0.023,0.065,0.038,0.097   c0.029,0.063,0.059,0.125,0.088,0.187c0,0.001,0.001,0.002,0.001,0.003c2.971,6.18,9.319,10.173,16.172,10.173h0.026   c0.446,0,0.808-0.361,0.808-0.808s-0.362-0.808-0.808-0.808h-0.027C249.766,270.594,243.99,266.961,241.286,261.339z"></path><path d="M250.83,264.942C250.83,264.942,250.83,264.942,250.83,264.942c-0.057-0.027-0.112-0.055-0.168-0.083   c-0.027-0.014-0.055-0.026-0.083-0.036c-0.025-0.018-0.052-0.033-0.08-0.048c-0.055-0.029-0.109-0.059-0.164-0.088   c-0.392-0.214-0.882-0.069-1.096,0.322c-0.213,0.392-0.069,0.883,0.323,1.096c0.062,0.034,0.124,0.067,0.186,0.1   c0.031,0.017,0.063,0.031,0.096,0.043c0.029,0.021,0.061,0.038,0.093,0.055c0.062,0.031,0.124,0.062,0.186,0.092   c0.001,0.001,0.002,0.002,0.003,0.002c1.839,0.893,3.815,1.346,5.875,1.346c4.799,0,9.271-2.585,11.672-6.745   c0.223-0.387,0.091-0.88-0.296-1.104c-0.386-0.223-0.88-0.09-1.104,0.296c-2.113,3.662-6.049,5.938-10.272,5.938   C254.188,266.127,252.448,265.728,250.83,264.942z"></path><path d="M255.961,242.424h0.041c6.195,0,11.388,4.835,11.822,11.007c0.004,0.063,0.008,0.125,0.012,0.188   c0.002,0.03,0.005,0.061,0.01,0.09c-0.002,0.031-0.003,0.061-0.001,0.093c0.002,0.062,0.004,0.123,0.006,0.185   c0.011,0.439,0.369,0.788,0.807,0.788c0.007,0,0.014,0,0.02,0c0.446-0.011,0.799-0.381,0.788-0.827   c-0.002-0.07-0.004-0.14-0.006-0.209c-0.002-0.036-0.006-0.071-0.012-0.104c0.003-0.035,0.003-0.071,0.001-0.107   c-0.004-0.069-0.008-0.138-0.013-0.207c0,0,0-0.001,0-0.002c-0.493-7.015-6.394-12.509-13.439-12.509h-0.035   c-0.446,0-0.808,0.361-0.808,0.808C255.153,242.062,255.514,242.424,255.961,242.424z"></path><path d="M248.961,242.793c-0.059,0.037-0.119,0.074-0.178,0.111c-0.03,0.019-0.059,0.04-0.085,0.063   c-0.032,0.015-0.063,0.033-0.093,0.052c-0.057,0.038-0.114,0.076-0.171,0.115c-0.001,0-0.001,0.001-0.002,0.001   c-3.693,2.514-5.897,6.678-5.897,11.14c0,2.377,0.628,4.714,1.816,6.759c0.15,0.257,0.421,0.401,0.699,0.401   c0.138,0,0.277-0.035,0.405-0.109c0.386-0.224,0.517-0.719,0.293-1.104c-1.045-1.798-1.598-3.854-1.598-5.946   c0-3.927,1.941-7.592,5.191-9.805c0.052-0.035,0.104-0.069,0.156-0.104c0.025-0.017,0.05-0.036,0.073-0.055   c0.028-0.013,0.055-0.028,0.081-0.045c0.052-0.033,0.104-0.066,0.157-0.098c0.38-0.234,0.499-0.731,0.265-1.111   C249.839,242.678,249.342,242.559,248.961,242.793z"></path><path d="M261.809,258.957c-0.037,0.046-0.074,0.091-0.111,0.135c-0.019,0.022-0.036,0.045-0.052,0.068   c-0.022,0.021-0.043,0.041-0.063,0.063c-0.037,0.044-0.076,0.086-0.115,0.128c-0.305,0.326-0.287,0.837,0.039,1.142   c0.155,0.146,0.354,0.217,0.551,0.217c0.216,0,0.432-0.086,0.591-0.256c0.049-0.053,0.097-0.105,0.145-0.159   c0.023-0.026,0.045-0.055,0.064-0.083c0.026-0.024,0.052-0.05,0.075-0.078c0.045-0.054,0.09-0.107,0.134-0.163   c0.001,0,0.001,0,0.001-0.001c1.296-1.605,2.009-3.628,2.009-5.694c0-5.004-4.07-9.075-9.082-9.075h-0.025   c-0.446,0-0.808,0.362-0.808,0.808c0,0.446,0.362,0.808,0.808,0.808h0.033c4.113,0,7.459,3.346,7.459,7.459   C263.46,255.999,262.89,257.618,261.809,258.957C261.809,258.957,261.809,258.957,261.809,258.957z"></path><path d="M249.342,248.111c-0.048,0.052-0.095,0.104-0.142,0.157c-0.024,0.027-0.045,0.055-0.065,0.084   c-0.026,0.024-0.051,0.05-0.075,0.078c-0.045,0.054-0.09,0.108-0.134,0.163c0,0,0,0-0.001,0.001   c-1.288,1.604-1.998,3.621-1.998,5.681c0,5.004,4.071,9.074,9.074,9.074h0.017c0.446,0,0.8-0.361,0.8-0.808   c0-0.445-0.37-0.808-0.816-0.808c-4.113,0-7.459-3.346-7.459-7.459c0-1.718,0.568-3.332,1.641-4.668c0,0,0-0.001,0.001-0.001   c0.037-0.046,0.074-0.091,0.112-0.137c0.019-0.022,0.036-0.045,0.052-0.068c0.021-0.02,0.042-0.041,0.062-0.063   c0.039-0.044,0.078-0.087,0.118-0.13c0.303-0.327,0.283-0.838-0.044-1.141C250.156,247.764,249.644,247.784,249.342,248.111z"></path><path d="M251.073,254.987c0.001,0.039,0.004,0.078,0.011,0.117c0.013,0.076,0.027,0.152,0.043,0.227c0,0,0,0.001,0,0.002   c0.492,2.276,2.542,3.928,4.873,3.928c2.749,0,4.985-2.236,4.985-4.985c0-2.749-2.236-4.985-4.985-4.985h-0.017   c-0.446,0-0.799,0.361-0.799,0.808c0,0.446,0.37,0.808,0.816,0.808c1.858,0,3.37,1.512,3.37,3.37c0,1.858-1.512,3.37-3.37,3.37   c-1.576,0-2.961-1.116-3.294-2.653l0,0c-0.011-0.052-0.021-0.104-0.03-0.156c-0.004-0.026-0.01-0.052-0.017-0.077   c0-0.026-0.002-0.052-0.006-0.079c-0.006-0.052-0.011-0.104-0.015-0.157c-0.033-0.445-0.418-0.779-0.864-0.748   c-0.445,0.033-0.779,0.419-0.747,0.864c0.005,0.078,0.013,0.155,0.022,0.232C251.056,254.911,251.064,254.949,251.073,254.987z"></path></g></svg></g></g></svg>